# xmcd CD database file
#
# Track frame offsets:
#	150
#	35707
#	73406
#	105925
#	122618
#	139725
#	171924
#	212384
#	242515
#	290475
#
# Disc length: 4105 seconds
#
# Revision: 0
# Processed by: cddbd v1.5.2PL0 Copyright (c) Steve Scherf et al.
# Submitted via: CDex 1.51
#
DISCID=9010070a
DTITLE=Matt Marucci - No Lesser Evil
DYEAR=2006
DGENRE=Jazz
TTITLE0=A Night in Tunisia
TTITLE1=Blue Suspension
TTITLE2=Emily
TTITLE3=I Can't Get Started
TTITLE4=Riff for Rusch
TTITLE5=Star Eyes
TTITLE6=No Lesser Evil
TTITLE7=You've Changed
TTITLE8=Take Five
TTITLE9=Alex-Dee
EXTD=YEAR: 2006
EXTT0=
EXTT1=
EXTT2=
EXTT3=
EXTT4=
EXTT5=
EXTT6=
EXTT7=
EXTT8=
EXTT9=
PLAYORDER=
